# xmcd
#
# Track frame offsets:
#	150
#	15108
#	29220
#	42980
#	55420
#	68871
#	88149
#	102345
#	117774
#	133328
#	146542
#	160774
#
# Disc length: 2365 seconds
#
# Revision: 2
# Processed by: cddbd v1.5.1PL0 Copyright (c) Steve Scherf et al.
# Submitted via: audiograbber 1.83.01
#
DISCID=a7093b0c
DTITLE=Jeff Cook and The Allstar Goodtime Band - 2 Rock 4 Country
DYEAR=2003
DGENRE=Country
TTITLE0=Too Rock For Country
TTITLE1=Rescue Me
TTITLE2=I've Got Some Lovin'
TTITLE3=All Night Worker
TTITLE4=Ain't Too Proud To Beg
TTITLE5=Mustang Sally
TTITLE6=Domino
TTITLE7=C.C. Rider
TTITLE8=Doctor My Eyes
TTITLE9=You Can't Do That
TTITLE10=Shama Lama Ding Dong
TTITLE11=Knock On Wood
EXTD=
EXTT0=
EXTT1=
EXTT2=
EXTT3=
EXTT4=
EXTT5=
EXTT6=
EXTT7=
EXTT8=
EXTT9=
EXTT10=
EXTT11=
PLAYORDER=
